<svg xmlns="http://www.w3.org/2000/svg" width="1373.333" height="1373.333" preserveAspectRatio="xMidYMid meet" version="1.0" viewBox="0 0 1030 1030"><metadata>Created by potrace 1.14, written by Peter Selinger 2001-2017</metadata><g fill="#000" stroke="none"><path d="M4910 10290 c-753 -35 -1465 -225 -2117 -565 -969 -506 -1716 -1253 -2217 -2217 -413 -793 -603 -1655 -566 -2568 32 -765 206 -1437 545 -2105 448 -882 1096 -1583 1928 -2085 710 -429 1440 -665 2257 -730 186 -15 634 -16 815 -1 761 63 1442 268 2094 633 769 430 1389 1015 1848 1743 344 546 568 1107 687 1721 109 563 140 1289 76 1786 -101 789 -433 1587 -947 2276 -308 412 -717 825 -1098 1107 -960 712 -2106 1060 -3305 1005z" transform="translate(0.000000,1030.000000) scale(0.100000,-0.100000)"/></g></svg>