<?xml version="1.0" encoding="UTF-8" standalone="no"?>
<!DOCTYPE svg PUBLIC "-//W3C//DTD SVG 1.1//EN" "http://www.w3.org/Graphics/SVG/1.1/DTD/svg11.dtd">
<svg width="100%" height="100%" viewBox="0 0 300 24" version="1.1" xmlns="http://www.w3.org/2000/svg" xmlns:xlink="http://www.w3.org/1999/xlink" xml:space="preserve" xmlns:serif="http://www.serif.com/" style="fill-rule:evenodd;clip-rule:evenodd;stroke-linejoin:round;stroke-miterlimit:2;">
    <g>
        <path d="M60.8,3.4C65.8,3.4 69.5,7.1 69.5,11.9C69.5,16.7 65.8,20.4 60.8,20.4L55,20.4C54.8,20.4 54.6,20.2 54.6,20L54.6,4C54.6,3.8 54.8,3.6 55,3.6L60.8,3.6L60.8,3.4ZM58.1,6.7L58.1,17.1L60.8,17.1C63.6,17.1 65.9,14.8 65.9,11.9C65.9,9 63.7,6.7 60.8,6.7L58.1,6.7Z" style="fill:rgb(239,59,36);fill-rule:nonzero;"/>
        <path d="M82.3,3.1C87.5,3.1 91.5,7.1 91.5,11.9C91.5,16.7 87.5,20.7 82.3,20.7C77.1,20.7 73.1,16.7 73.1,11.9C73.1,7.1 77.1,3.1 82.3,3.1M82.3,17.4C85.3,17.4 87.9,15 87.9,11.8C87.9,8.7 85.3,6.2 82.3,6.2C79.3,6.2 76.7,8.6 76.7,11.8C76.7,15 79.2,17.4 82.3,17.4" style="fill:rgb(239,59,36);fill-rule:nonzero;"/>
        <path d="M104.1,3.1C109.3,3.1 113.3,7.1 113.3,11.9C113.3,16.7 109.3,20.7 104.1,20.7C98.9,20.7 94.9,16.7 94.9,11.9C94.9,7.1 98.9,3.1 104.1,3.1M104.1,17.4C107.1,17.4 109.7,15 109.7,11.8C109.7,8.7 107.1,6.2 104.1,6.2C101.1,6.2 98.5,8.6 98.5,11.8C98.5,15 101.1,17.4 104.1,17.4" style="fill:rgb(239,59,36);fill-rule:nonzero;"/>
        <path d="M118.1,3.9C118.1,3.7 118.3,3.5 118.5,3.5L125.6,3.5C129,3.5 131.4,6 131.4,9.1C131.4,12.7 128.4,14.1 128.4,14.1L131.7,19.8C131.9,20.1 131.7,20.5 131.3,20.5L128.4,20.5C128.2,20.5 128.1,20.4 128,20.3L124.9,14.6L121.8,14.6L121.8,20.1C121.8,20.3 121.6,20.5 121.4,20.5L118.7,20.5C118.5,20.5 118.3,20.3 118.3,20.1L118.3,3.9L118.1,3.9ZM125.4,6.7L121.7,6.7L121.7,11.2L125.4,11.2C126.7,11.2 127.7,10.2 127.7,9C127.7,7.7 126.8,6.7 125.4,6.7" style="fill:rgb(239,59,36);fill-rule:nonzero;"/>
        <path d="M143.4,3.5C148.4,3.5 152.1,7.2 152.1,12C152.1,16.8 148.4,20.5 143.4,20.5L137.6,20.5C137.4,20.5 137.2,20.3 137.2,20.1L137.2,4.1C137.2,3.9 137.4,3.7 137.6,3.7L143.4,3.7L143.4,3.5ZM140.8,6.8L140.8,17.2L143.5,17.2C146.3,17.2 148.6,14.9 148.6,12C148.6,9.1 146.4,6.8 143.5,6.8L140.8,6.8Z" style="fill:rgb(239,59,36);fill-rule:nonzero;"/>
        <path d="M159.9,16.3L158.6,20C158.5,20.2 158.4,20.3 158.2,20.3L155.3,20.3C155,20.3 154.8,20 154.9,19.7L161.2,3.7C161.3,3.5 161.4,3.4 161.6,3.4L164.9,3.4C165.1,3.4 165.2,3.5 165.3,3.7L171.6,19.7C171.7,20 171.5,20.3 171.2,20.3L168.3,20.3C168.1,20.3 168,20.2 167.9,20L166.6,16.3L159.9,16.3ZM163.2,7.6L161.1,13.2L165.2,13.2L163.2,7.6Z" style="fill:rgb(239,59,36);fill-rule:nonzero;"/>
        <path d="M174.9,8C174.9,5.3 177.2,3 180.8,3C183.7,3 185.4,4.3 186.1,5C186.3,5.2 186.3,5.4 186.1,5.6L184.5,7.2C184.3,7.4 184.1,7.4 183.9,7.2C183.4,6.8 182.5,6.1 181.1,6.1C179.7,6.1 178.6,6.9 178.6,7.9C178.6,11 187.2,9.2 187.2,15.3C187.2,18.3 184.9,20.6 180.8,20.6C177.5,20.6 175.4,18.9 174.7,18.1C174.5,17.9 174.5,17.7 174.7,17.5L176.3,15.9C176.5,15.7 176.7,15.7 176.9,15.9C177.4,16.4 178.7,17.4 180.6,17.4C182.4,17.4 183.6,16.4 183.6,15.2C183.5,12.2 174.9,14 174.9,8" style="fill:rgb(239,59,36);fill-rule:nonzero;"/>
        <path d="M202.7,3.8L202.7,10.1L195.5,10.1L195.5,3.8C195.5,3.6 195.3,3.4 195.1,3.4L192.4,3.4C192.2,3.4 192,3.6 192,3.8L192,19.8C192,20 192.2,20.2 192.4,20.2L195.1,20.2C195.3,20.2 195.5,20 195.5,19.8L195.5,13.4L202.7,13.4L202.7,19.8C202.7,20 202.9,20.2 203.1,20.2L205.8,20.2C206,20.2 206.2,20 206.2,19.8L206.2,3.8C206.2,3.6 206,3.4 205.8,3.4L203.1,3.4C202.9,3.4 202.7,3.6 202.7,3.8" style="fill:rgb(239,59,36);fill-rule:nonzero;"/>
        <path d="M40.2,5.6C38.4,2.1 34.7,0 30.8,0L1,0C0.1,0 -0.3,1.1 0.3,1.8L6.8,8.3C7.4,8.9 8.1,9.2 9,9.2L30,9.2C31.3,9.2 32.4,10.1 32.7,11.3C33.1,13.1 31.8,14.6 30.1,14.6L15.5,14.6C14.6,14.6 14.1,15.7 14.8,16.4L21.3,22.9C21.9,23.5 22.7,23.8 23.5,23.8L30,23.8C38.5,23.8 45,14.7 40.2,5.6" style="fill:rgb(239,59,36);fill-rule:nonzero;"/>
    </g>
    <g>
        <path d="M220.6,8C220.6,5.3 222.9,3 226.6,3C230.4,3 232.2,5.3 232.2,5.3L230,7.6C230,7.6 228.8,6.1 226.8,6.1C225.3,6.1 224.5,7 224.5,7.9C224.5,11.1 232.9,9.2 232.9,15.3C232.9,18.3 230.6,20.6 226.5,20.6C222.2,20.6 220.1,17.8 220.1,17.8L222.3,15.6C222.3,15.6 223.8,17.4 226.3,17.4C228.1,17.4 229.1,16.4 229.1,15.2C229,12.3 220.6,14.1 220.6,8Z" style="fill:rgb(198,197,182);fill-rule:nonzero;"/>
        <path d="M247.4,3.4L247.4,6.7L242.5,6.7L242.5,20.4L238.9,20.4L238.9,6.7L234,6.7L234,3.4L247.4,3.4Z" style="fill:rgb(198,197,182);fill-rule:nonzero;"/>
        <path d="M257.3,3C262.5,3 266.5,7 266.5,11.9C266.5,16.8 262.5,20.8 257.3,20.8C252.1,20.8 248.1,16.8 248.1,11.9C248.1,7 252.1,3 257.3,3ZM257.3,17.5C260.3,17.5 262.8,15.1 262.8,11.9C262.8,8.7 260.4,6.3 257.3,6.3C254.3,6.3 251.8,8.7 251.8,11.9C251.8,15.1 254.3,17.5 257.3,17.5Z" style="fill:rgb(198,197,182);fill-rule:nonzero;"/>
        <path d="M270,3.4L277.5,3.4C280.9,3.4 283.3,5.9 283.3,9C283.3,12.6 280.3,14 280.3,14L283.9,20.4L280,20.4L276.7,14.4L273.5,14.4L273.5,20.4L270,20.4L270,3.4ZM277.4,6.7L273.6,6.7L273.6,11.2L277.4,11.2C278.7,11.2 279.7,10.2 279.7,9C279.7,7.6 278.7,6.7 277.4,6.7Z" style="fill:rgb(198,197,182);fill-rule:nonzero;"/>
        <path d="M300,17.1L300,20.4L287.2,20.4L287.2,3.4L299.7,3.4L299.7,6.7L290.8,6.7L290.8,10.1L297.7,10.1L297.7,13.4L290.8,13.4L290.8,17.2L300,17.2L300,17.1Z" style="fill:rgb(198,197,182);fill-rule:nonzero;"/>
    </g>
</svg>
