<?xml version="1.0" encoding="utf-8"?>
<!-- Generator: Adobe Illustrator 22.0.1, SVG Export Plug-In . SVG Version: 6.00 Build 0)  -->
<svg version="1.1" id="Layer_1" xmlns="http://www.w3.org/2000/svg" xmlns:xlink="http://www.w3.org/1999/xlink" x="0px" y="0px"
	 viewBox="0 0 300 23.8" style="enable-background:new 0 0 300 23.8;" xml:space="preserve">
<style type="text/css">
	.st0{fill:#EF3B24;}
	.st1{fill:#C6C5B6;}
</style>
<g>
	<path class="st0" d="M60.8,3.4c5,0,8.7,3.7,8.7,8.5s-3.7,8.5-8.7,8.5h-5.8c-0.2,0-0.4-0.2-0.4-0.4v-16c0-0.2,0.2-0.4,0.4-0.4H60.8z
		 M58.1,6.7v10.4h2.7c2.8,0,5.1-2.3,5.1-5.2s-2.2-5.2-5.1-5.2H58.1z"/>
	<path class="st0" d="M82.3,3.1c5.2,0,9.2,4,9.2,8.8c0,4.8-4,8.8-9.2,8.8c-5.2,0-9.2-4-9.2-8.8C73.1,7.1,77.1,3.1,82.3,3.1
		 M82.3,17.4c3,0,5.6-2.4,5.6-5.6c0-3.1-2.6-5.6-5.6-5.6c-3,0-5.6,2.4-5.6,5.6C76.7,15,79.2,17.4,82.3,17.4"/>
	<path class="st0" d="M104.1,3.1c5.2,0,9.2,4,9.2,8.8c0,4.8-4,8.8-9.2,8.8c-5.2,0-9.2-4-9.2-8.8C94.9,7.1,98.9,3.1,104.1,3.1
		 M104.1,17.4c3,0,5.6-2.4,5.6-5.6c0-3.1-2.6-5.6-5.6-5.6c-3,0-5.6,2.4-5.6,5.6C98.5,15,101.1,17.4,104.1,17.4"/>
	<path class="st0" d="M118.1,3.9c0-0.2,0.2-0.4,0.4-0.4h7.1c3.4,0,5.8,2.5,5.8,5.6c0,3.6-3,5-3,5l3.3,5.7c0.2,0.3,0,0.7-0.4,0.7
		h-2.9c-0.2,0-0.3-0.1-0.4-0.2l-3.1-5.7h-3.1v5.5c0,0.2-0.2,0.4-0.4,0.4h-2.7c-0.2,0-0.4-0.2-0.4-0.4V3.9z M125.4,6.7h-3.7v4.5h3.7
		c1.3,0,2.3-1,2.3-2.2C127.7,7.7,126.8,6.7,125.4,6.7"/>
	<path class="st0" d="M143.4,3.5c5,0,8.7,3.7,8.7,8.5s-3.7,8.5-8.7,8.5h-5.8c-0.2,0-0.4-0.2-0.4-0.4v-16c0-0.2,0.2-0.4,0.4-0.4
		H143.4z M140.8,6.8v10.4h2.7c2.8,0,5.1-2.3,5.1-5.2s-2.2-5.2-5.1-5.2H140.8z"/>
	<path class="st0" d="M159.9,16.3l-1.3,3.7c-0.1,0.2-0.2,0.3-0.4,0.3h-2.9c-0.3,0-0.5-0.3-0.4-0.6l6.3-16c0.1-0.2,0.2-0.3,0.4-0.3
		h3.3c0.2,0,0.3,0.1,0.4,0.3l6.3,16c0.1,0.3-0.1,0.6-0.4,0.6h-2.9c-0.2,0-0.3-0.1-0.4-0.3l-1.3-3.7H159.9z M163.2,7.6l-2.1,5.6h4.1
		L163.2,7.6z"/>
	<path class="st0" d="M174.9,8c0-2.7,2.3-5,5.9-5c2.9,0,4.6,1.3,5.3,2c0.2,0.2,0.2,0.4,0,0.6l-1.6,1.6c-0.2,0.2-0.4,0.2-0.6,0
		c-0.5-0.4-1.4-1.1-2.8-1.1c-1.4,0-2.5,0.8-2.5,1.8c0,3.1,8.6,1.3,8.6,7.4c0,3-2.3,5.3-6.4,5.3c-3.3,0-5.4-1.7-6.1-2.5
		c-0.2-0.2-0.2-0.4,0-0.6l1.6-1.6c0.2-0.2,0.4-0.2,0.6,0c0.5,0.5,1.8,1.5,3.7,1.5c1.8,0,3-1,3-2.2C183.5,12.2,174.9,14,174.9,8"/>
	<path class="st0" d="M202.7,3.8v6.3h-7.2V3.8c0-0.2-0.2-0.4-0.4-0.4h-2.7c-0.2,0-0.4,0.2-0.4,0.4v16c0,0.2,0.2,0.4,0.4,0.4h2.7
		c0.2,0,0.4-0.2,0.4-0.4v-6.4h7.2v6.4c0,0.2,0.2,0.4,0.4,0.4h2.7c0.2,0,0.4-0.2,0.4-0.4v-16c0-0.2-0.2-0.4-0.4-0.4h-2.7
		C202.9,3.4,202.7,3.6,202.7,3.8"/>
	<path class="st0" d="M40.2,5.6C38.4,2.1,34.7,0,30.8,0H1C0.1,0-0.3,1.1,0.3,1.8l6.5,6.5C7.4,8.9,8.1,9.2,9,9.2h21
		c1.3,0,2.4,0.9,2.7,2.1c0.4,1.8-0.9,3.3-2.6,3.3H15.5c-0.9,0-1.4,1.1-0.7,1.8l6.5,6.5c0.6,0.6,1.4,0.9,2.2,0.9H30
		C38.5,23.8,45,14.7,40.2,5.6"/>
</g>
<g>
	<path class="st1" d="M220.6,8c0-2.7,2.3-5,6-5c3.8,0,5.6,2.3,5.6,2.3L230,7.6c0,0-1.2-1.5-3.2-1.5c-1.5,0-2.3,0.9-2.3,1.8
		c0,3.2,8.4,1.3,8.4,7.4c0,3-2.3,5.3-6.4,5.3c-4.3,0-6.4-2.8-6.4-2.8l2.2-2.2c0,0,1.5,1.8,4,1.8c1.8,0,2.8-1,2.8-2.2
		C229,12.3,220.6,14.1,220.6,8z"/>
	<path class="st1" d="M247.4,3.4v3.3h-4.9v13.7h-3.6V6.7H234V3.4H247.4z"/>
	<path class="st1" d="M257.3,3c5.2,0,9.2,4,9.2,8.9s-4,8.9-9.2,8.9s-9.2-4-9.2-8.9S252.1,3,257.3,3z M257.3,17.5
		c3,0,5.5-2.4,5.5-5.6s-2.4-5.6-5.5-5.6c-3,0-5.5,2.4-5.5,5.6S254.3,17.5,257.3,17.5z"/>
	<path class="st1" d="M270,3.4h7.5c3.4,0,5.8,2.5,5.8,5.6c0,3.6-3,5-3,5l3.6,6.4h-3.9l-3.3-6h-3.2v6H270V3.4z M277.4,6.7h-3.8v4.5
		h3.8c1.3,0,2.3-1,2.3-2.2C279.7,7.6,278.7,6.7,277.4,6.7z"/>
	<path class="st1" d="M300,17.1v3.3h-12.8v-17h12.5v3.3h-8.9v3.4h6.9v3.3h-6.9v3.8H300z"/>
</g>
</svg>
