<svg version="1.1" id="Layer_1" xmlns="http://www.w3.org/2000/svg" xmlns:xlink="http://www.w3.org/1999/xlink" x="0px" y="0px" viewBox="0 0 143 40" style="enable-background:new 0 0 143 40;" xml:space="preserve">
 <style type="text/css">
  .st0{fill:#FF8000;}
 </style>
 <g>
  <path class="st0" d="M141.3,15.8c0.1,0,0.1-0.1,0.1-0.1c0-0.1-0.1-0.1-0.1-0.1h-0.1v0.3H141.3z M141.1,15.4h0.3
		c0.2,0,0.3,0.1,0.3,0.3c0,0.1-0.1,0.2-0.2,0.2v0c0,0,0,0,0,0l0.2,0.3h-0.2l-0.2-0.3h-0.1v0.3h-0.2V15.4z M141.3,16.5
		c0.4,0,0.6-0.3,0.6-0.6c0-0.4-0.3-0.6-0.6-0.6c-0.3,0-0.6,0.3-0.6,0.6C140.7,16.2,141,16.5,141.3,16.5z M141.3,15.1
		c0.4,0,0.8,0.4,0.8,0.8c0,0.4-0.3,0.8-0.8,0.8c-0.4,0-0.8-0.4-0.8-0.8C140.5,15.4,140.9,15.1,141.3,15.1z">
  </path>
  <path class="st0" d="M137.4,28.9L137.4,28.9c0,0.6-0.2,1.1-0.5,1.6l0,0l0,0c-0.3,0.4-0.8,0.6-1.3,0.5h-1.9v-4.1h1.9
		c0.5,0,1,0.2,1.3,0.5l0,0C137.3,27.8,137.5,28.4,137.4,28.9L137.4,28.9z M133.8,19.2h1.7c0.4,0,0.8,0.1,1.1,0.4l0,0
		c0.3,0.4,0.4,0.9,0.4,1.4c0,0.5-0.1,1.1-0.4,1.5v0c-0.3,0.3-0.7,0.5-1.1,0.5h-1.7V19.2z M141.4,28.9L141.4,28.9
		c0-1.6-0.7-3.1-2-4.1l0,0l0,0c1-1,1.6-2.4,1.6-3.8V21c0.1-1.5-0.5-3-1.5-4.1l0,0c-1.1-1.2-2.6-1.9-4.2-1.8H130
		c-0.2,0-0.3,0.1-0.3,0.3c0,0,0,0,0,0v19.2c0,0.2,0.1,0.3,0.3,0.3h5.7c1.7,0,3.4-0.7,4.5-2l0,0C141.1,31.8,141.5,30.4,141.4,28.9">
  </path>
  <path class="st0" d="M126.7,29.2V15.5c0-0.2-0.1-0.3-0.3-0.3h-3.5c-0.2,0-0.3,0.1-0.3,0.3c0,0,0,0,0,0v13.7c0,0.6-0.1,1.1-0.5,1.5
		c-0.6,0.6-1.5,0.7-2.2,0.1c0,0-0.1-0.1-0.1-0.1c-0.3-0.4-0.5-1-0.5-1.5V15.5c0-0.2-0.2-0.3-0.3-0.3h-3.5c-0.2,0-0.3,0.1-0.3,0.3
		v13.7c-0.1,1.6,0.4,3.2,1.5,4.5l0,0c2.4,2.2,6.2,2.2,8.6-0.1l0,0C126.3,32.4,126.8,30.8,126.7,29.2">
  </path>
  <path class="st0" d="M111.9,15.2C111.9,15.2,111.9,15.2,111.9,15.2L111.9,15.2h-3.4c-0.2,0-0.3,0.1-0.3,0.3c0,0,0,0,0,0V23h-3.4
		v-7.4c0-0.2-0.2-0.3-0.3-0.3c0,0,0,0,0,0h-3.4c-0.2,0-0.3,0.1-0.3,0.3c0,0,0,0,0,0v19.1c0,0.2,0.2,0.3,0.3,0.3h3.4
		c0.2,0,0.3-0.2,0.3-0.3c0,0,0,0,0,0V27h3.4v7.7c0,0.2,0.2,0.3,0.3,0.3h3.4c0.2,0,0.3-0.1,0.3-0.3c0,0,0,0,0,0V15.5
		C112.2,15.4,112.1,15.2,111.9,15.2z">
  </path>
  <path class="st0" d="M94.1,28.9L94.1,28.9c0,0.6-0.2,1.1-0.5,1.6l0,0l0,0c-0.3,0.4-0.8,0.6-1.3,0.5h-1.9v-4.1h1.9
		c0.5,0,1,0.2,1.3,0.5l0,0C93.9,27.8,94.1,28.4,94.1,28.9L94.1,28.9z M90.4,19.2L90.4,19.2l1.7,0c0.4,0,0.8,0.1,1.1,0.4l0,0
		c0.3,0.4,0.4,0.9,0.4,1.4c0,0.5-0.1,1.1-0.4,1.5v0c-0.3,0.3-0.7,0.5-1.1,0.5h-1.7V19.2z M98.1,28.9L98.1,28.9c0-1.6-0.7-3.1-2-4.1
		h0l0,0c1-1,1.6-2.4,1.6-3.8c0-1.4-0.5-2.9-1.5-3.9v0c-1.1-1.2-2.6-1.9-4.2-1.8h-5.4c-0.2,0-0.3,0.1-0.3,0.3c0,0,0,0,0,0v19.1
		c0,0.2,0.2,0.3,0.3,0.3h5.7c1.7,0,3.4-0.7,4.5-2l0,0C97.7,31.8,98.2,30.4,98.1,28.9">
  </path>
  <path class="st0" d="M83.3,29.2V15.5c0-0.2-0.2-0.3-0.3-0.3h-3.5c-0.2,0-0.3,0.1-0.3,0.3v13.6c0,0.6-0.1,1.1-0.5,1.6
		c-0.6,0.6-1.5,0.7-2.2,0.1c0,0-0.1-0.1-0.1-0.1c-0.3-0.4-0.5-1-0.5-1.5V15.5c0-0.2-0.1-0.3-0.3-0.3c0,0,0,0,0,0h-3.5
		c-0.2,0-0.3,0.1-0.3,0.3c0,0,0,0,0,0v13.7c-0.1,1.6,0.4,3.3,1.5,4.5c1.1,1.1,2.7,1.7,4.3,1.7h0.1c1.6,0.1,3.1-0.5,4.3-1.7
		C82.9,32.4,83.4,30.8,83.3,29.2">
  </path>
  <path class="st0" d="M64.8,23L64.8,23L64.8,23c-0.3,0.4-0.8,0.6-1.3,0.6h-1.7v-4.3h1.7c0.5,0,1,0.2,1.4,0.6v0
		c0.4,0.4,0.5,1,0.5,1.5v0C65.4,21.9,65.2,22.5,64.8,23z M67,26.5L67,26.5L67,26.5c0.4-0.3,0.7-0.5,1-0.9l0,0c1-1.2,1.6-2.8,1.5-4.3
		v0c0-1.6-0.5-3.1-1.6-4.3l0.1,0.1c-1-1.2-2.5-1.9-4.1-1.9h-5.7c-0.2,0-0.3,0.1-0.3,0.3c0,0,0,0,0,0v19.1c0,0.2,0.2,0.3,0.3,0.3h3.4
		c0.2,0,0.3-0.1,0.3-0.3c0,0,0,0,0,0v-7.1h1.3l2.1,7.2c0,0.1,0.2,0.2,0.3,0.2h3.6c0.1,0,0.2-0.1,0.3-0.1c0.1-0.1,0.1-0.2,0-0.3
		L67,26.5">
  </path>
  <path class="st0" d="M53.7,16.6c-1.1-1.1-2.7-1.7-4.3-1.7l0,0h0c-1.6-0.1-3.1,0.5-4.3,1.7l0,0c-1.1,1.2-1.6,2.9-1.5,4.5v8.1
		c-0.1,1.6,0.4,3.3,1.5,4.5c1.1,1.1,2.7,1.7,4.3,1.7h0.1c1.6,0.1,3.1-0.6,4.3-1.7c1.1-1.3,1.6-2.9,1.5-4.5v-4.5
		c0-0.2-0.2-0.3-0.4-0.3h-5c-0.2,0-0.3,0.1-0.4,0.3V28c0,0.2,0.2,0.4,0.4,0.4h1.4v0.8c0,0.6-0.1,1.1-0.5,1.6l0,0
		c-0.3,0.4-0.8,0.6-1.2,0.6h0c-0.5,0-0.9-0.2-1.2-0.5c-0.4-0.5-0.5-1-0.5-1.6v-8.1c0-0.6,0.2-1.2,0.5-1.6c0.3-0.4,0.8-0.6,1.2-0.6h0
		c0.5,0,0.9,0.2,1.2,0.5l0,0c0.3,0.5,0.5,1,0.4,1.6v0.8c0,0.2,0.2,0.3,0.3,0.3h3.4c0.2,0,0.3-0.1,0.3-0.3v-0.8
		C55.3,19.4,54.8,17.8,53.7,16.6L53.7,16.6">
  </path>
  <path class="st0" d="M33.8,12c-0.1-0.1-0.1-0.2-0.1-0.3v0c-0.4-4.1-0.9-6.8-0.9-6.8c-0.1-0.5-0.5-0.8-1-0.9l-3.3-0.4
		c0,0-0.1,0-0.1,0c-0.4,0-0.7,0.3-0.7,0.7v1.1c0,0,0,0,0,0c0,0,0,0,0,0l0,0c-2-1.8-4.2-3.5-6.6-5C20.6,0.2,20,0,19.4,0v0h0v0
		c-0.6,0-1.2,0.2-1.6,0.5C6.5,7.4,0.3,18.7,0.1,19.4C0,19.5,0,19.7,0,19.8c0,0.5,0.4,1,0.8,1.1l3.2,0.6c0.4,0.1,0.8,0.5,0.8,0.9
		c0,0.6,0.6,13.4,1.4,16.7C6.4,39.6,6.9,40,7.4,40h0c1.9,0,3.6-0.1,5.5-0.1c0,0,0,0,0,0h0l0,0c0,0,0.1,0,0.1,0
		c0.2,0,0.4-0.2,0.4-0.4c0,0,0,0,0,0c-0.1-1.1-0.2-3.7-0.4-6.4c0-0.1,0-0.2,0-0.2h0c0-0.2-0.1-0.4-0.3-0.6c-1-0.6-1.6-1.6-1.7-2.8
		c-0.2-4.5-0.3-9.7,0-13.7c0-0.3,0.3-0.6,0.6-0.6c0.4,0,0.7,0.3,0.7,0.6c0,0,0,0,0,0.1c-0.2,2.7-0.2,5.9-0.1,9.1
		c0,0.4,0.4,0.8,0.8,0.8c0.4,0,0.8-0.4,0.8-0.8c-0.1-3.2,0-6.4,0.1-9.1c0-0.3,0.3-0.6,0.6-0.6c0.4,0,0.7,0.3,0.7,0.6c0,0,0,0,0,0.1
		c-0.2,2.7-0.2,5.9-0.1,9c0,0,0,0,0,0c0,0.4,0.4,0.8,0.8,0.8c0.4,0,0.8-0.4,0.8-0.8c-0.1-3.2,0-6.4,0.1-9.1c0-0.3,0.3-0.6,0.6-0.6
		c0.4,0,0.7,0.3,0.7,0.6c0,0,0,0,0,0.1c-0.2,3.9-0.2,8.9,0,13.3c0,0,0,0,0,0c0,0,0,0,0,0.1c0,0,0,0,0,0c0,0,0,0,0,0
		c0,1.2-0.6,2.3-1.5,2.9c-0.2,0.1-0.3,0.3-0.3,0.5c0,0-0.1,0.7,0.2,3.9c0.1,1.4,0.2,2.4,0.3,2.9c0,0.2,0.2,0.3,0.3,0.3
		c0.1,0,0.2,0,0.3,0h0c0.6,0,1.3,0,1.9,0h0.1h0.1c0.8,0,1.7,0,2.4,0l1.8,0c0,0,0,0,0,0c0.2,0,0.3-0.1,0.3-0.3
		c0.4-3.9,0.5-6.1,0.5-6.1c0-0.2-0.2-0.3-0.3-0.4l-2.2-0.3c-0.4-0.1-0.6-0.3-0.6-0.5c0-0.2,0-0.3,0-0.3c0.9-13,5.2-17.4,5.2-17.4
		c0.1-0.1,0.2-0.2,0.2-0.2c0.1-0.1,0.3-0.1,0.4-0.1c0.3,0,0.5,0.2,0.6,0.4c0,0,0,0.1,0.1,0.3c0.4,4.1,0.2,11.1,0,16.5
		c-0.2,4.6-0.4,8.2-0.4,8.2c0,0,0,0,0,0c0,0.1,0.1,0.3,0.3,0.3v0c1.2,0,2.4,0,3.7,0.1h0c0.5,0,1-0.4,1.1-0.8
		c0.8-3.3,1.4-16.1,1.4-16.7c0-0.5,0.4-0.8,0.8-0.9l3.2-0.6c0.5-0.1,0.8-0.6,0.8-1.1c0-0.2,0-0.3-0.1-0.5C38.6,19,36.9,15.9,33.8,12
		">
  </path>
 </g>
</svg>