<?xml version="1.0" encoding="UTF-8" standalone="no"?>
<!DOCTYPE svg PUBLIC "-//W3C//DTD SVG 1.1//EN" "http://www.w3.org/Graphics/SVG/1.1/DTD/svg11.dtd">
<svg width="100%" height="100%" viewBox="0 0 1146 379" version="1.1" xmlns="http://www.w3.org/2000/svg" xmlns:xlink="http://www.w3.org/1999/xlink" xml:space="preserve" style="fill-rule:evenodd;clip-rule:evenodd;stroke-linejoin:round;stroke-miterlimit:2;">
    <g transform="matrix(4.16667,0,0,4.16667,0,-463)">
        <rect x="0" y="110.805" width="274.529" height="91.195" style="fill:rgb(239,59,37);fill-rule:nonzero;"/>
        <path d="M21.226,144.483C21.321,143.133 21.58,142.845 22.701,142.789C22.972,142.776 23.245,142.787 23.517,142.787C34.403,142.787 45.288,142.785 56.174,142.788C61.225,142.789 65.921,145.749 67.833,150.507C68.762,152.819 69.272,155.152 69.077,157.616C68.866,160.28 67.922,162.708 66.234,164.779C64.769,166.577 63.063,168.102 60.834,168.965C59.393,169.524 57.928,169.939 56.393,169.97C53.627,170.026 50.859,169.969 48.093,170.023C47.004,170.043 46.134,169.614 45.424,168.907C42.983,166.477 40.589,163.999 38.181,161.536C38.056,161.408 37.958,161.253 37.863,161.131C37.913,159.96 38.213,159.569 39.186,159.443C39.498,159.402 39.82,159.439 40.138,159.439C45.082,159.44 50.025,159.44 54.969,159.439C55.693,159.439 56.406,159.437 57.074,159.054C58.316,158.344 58.807,157.183 58.493,155.565C58.291,154.523 57.031,153.47 55.85,153.376C55.444,153.344 55.035,153.355 54.626,153.355C47.188,153.354 39.75,153.331 32.311,153.372C30.705,153.381 29.452,152.863 28.347,151.705C26.312,149.572 24.2,147.514 22.122,145.423C21.805,145.103 21.5,144.771 21.226,144.483Z" style="fill:white;fill-rule:nonzero;"/>
        <path d="M142.598,156.502C142.718,153.201 140.025,150.149 136.313,150.121C132.462,150.094 129.891,152.94 129.892,156.506C129.893,160.012 132.528,162.859 136.412,162.841C140.359,162.822 142.701,159.452 142.598,156.502ZM136.436,166.465C133.226,166.562 130.643,165.393 128.524,163.272C126.012,160.756 124.837,156.501 126.471,152.776C127.997,149.298 130.585,147.229 134.362,146.532C138.081,145.847 141.273,146.823 143.892,149.426C148.661,154.165 147.422,161.813 141.701,165.096C140.013,166.065 138.242,166.592 136.436,166.465Z" style="fill:white;fill-rule:nonzero;"/>
        <path d="M117.557,156.518C117.714,152.828 114.337,150.082 111.467,150.074C107.945,150.066 104.772,152.779 104.854,156.476C104.937,160.177 107.452,162.863 111.49,162.817C115.325,162.773 117.62,159.57 117.557,156.518ZM121.714,155.491C121.615,160.453 119.775,163.236 116.496,165.18C112.82,167.359 107.242,166.834 104.015,163.83C98.944,159.11 99.748,151.283 105.835,147.735C109.775,145.439 114.537,145.802 118.097,148.747C120.497,150.733 121.819,153.359 121.714,155.491Z" style="fill:white;fill-rule:nonzero;"/>
        <path d="M178.349,150.609C178.131,154.666 178.215,161.423 178.52,162.569C179.374,162.569 180.271,162.616 181.163,162.56C183.023,162.443 184.652,161.849 185.893,160.333C188.408,157.263 187.294,152.281 183.251,150.922C181.661,150.387 180.036,150.74 178.349,150.609ZM174.39,146.916C174.667,146.889 174.887,146.848 175.107,146.848C177.326,146.845 179.545,146.794 181.762,146.862C186.566,147.011 190.285,149.981 191.193,154.776C192.188,160.036 189.056,164.382 184.601,165.789C183.717,166.067 182.749,166.154 181.814,166.18C179.733,166.235 177.65,166.197 175.567,166.197L174.392,166.197C174.1,165.046 174.092,148.128 174.39,146.916Z" style="fill:white;fill-rule:nonzero;"/>
        <path d="M83.583,162.359C84.714,162.359 85.709,162.395 86.7,162.352C88.765,162.261 90.414,161.384 91.529,159.615C93.111,157.105 92.574,154.062 90.714,152.197C88.648,150.127 86.121,150.36 83.583,150.462L83.583,162.359ZM79.541,146.893C82.559,146.893 85.536,146.585 88.422,146.967C92.466,147.502 95.162,150.02 96.288,153.985C97.325,157.64 96.023,161.943 92.404,164.428C90.993,165.397 89.428,166.009 87.774,166.097C85.071,166.24 82.354,166.136 79.658,166.136C79.385,165.151 79.29,149.394 79.541,146.893Z" style="fill:white;fill-rule:nonzero;"/>
        <path d="M163.254,153.907C163.272,153.645 163.307,153.373 163.306,153.103C163.304,151.633 162.44,150.544 160.991,150.441C159.517,150.335 158.03,150.417 156.534,150.417L156.534,155.556C157.822,155.556 159.042,155.491 160.254,155.573C161.585,155.665 162.523,155.151 163.254,153.907ZM156.458,159.426L156.458,165.775C155.487,166.258 153.497,166.281 152.419,165.839L152.419,146.923C152.728,146.888 153.028,146.825 153.328,146.824C155.911,146.817 158.496,146.854 161.079,146.811C164.091,146.761 167.229,148.892 167.526,152.793C167.707,155.158 166.65,157.072 164.736,158.488C164.629,158.567 164.498,158.613 164.384,158.686C164.309,158.734 164.247,158.803 164.107,158.925C165.379,161.176 166.651,163.424 167.915,165.656C167.294,166.224 167.294,166.224 163.867,166.145C162.454,164.062 161.415,161.663 160.007,159.426L156.458,159.426Z" style="fill:white;fill-rule:nonzero;"/>
        <path d="M241.071,158.321C240.943,160.852 241.151,163.33 240.94,165.856C239.639,166.32 238.384,166.011 237.089,166.093C236.992,165.801 236.841,165.561 236.841,165.32C236.828,159.424 236.829,153.528 236.836,147.632C236.837,147.418 236.929,147.204 236.997,146.909L240.874,146.909C241.208,148.117 240.981,149.38 241.023,150.62C241.064,151.844 241.033,153.068 241.033,154.286C242.04,154.516 246.666,154.573 249.268,154.385L249.268,146.92C250.669,146.752 251.954,146.801 253.302,146.879L253.302,165.858C252.029,166.323 250.7,166.108 249.285,165.966L249.285,158.321L241.071,158.321Z" style="fill:white;fill-rule:nonzero;"/>
        <path d="M203.998,151.598C203.17,153.828 202.42,155.85 201.62,158.007C202.505,158.007 203.267,158.026 204.028,158.002C204.773,157.978 205.533,158.111 206.333,157.889C205.561,155.811 204.817,153.805 203.998,151.598ZM201.773,146.847L206.252,146.847C207.514,150.021 208.81,153.209 210.05,156.418C211.273,159.58 212.579,162.713 213.738,165.928C212.942,166.314 212.256,166.137 211.596,166.165C210.922,166.194 210.247,166.172 209.481,166.172C208.905,164.625 208.347,163.125 207.775,161.588L200.329,161.588C199.755,163.067 199.162,164.597 198.577,166.106C197.203,166.106 195.945,166.116 194.686,166.088C194.572,166.086 194.463,165.837 194.342,165.692C196.816,159.419 199.28,153.171 201.773,146.847Z" style="fill:white;fill-rule:nonzero;"/>
        <path d="M230.533,149.069C229.77,149.821 229.063,150.518 228.249,151.321C227.916,151.142 227.569,150.982 227.249,150.777C226.148,150.072 224.986,149.835 223.671,150.035C222.805,150.167 222.33,150.696 221.771,151.317L221.771,152.62C222.539,153.777 223.782,154.085 224.974,154.468C226.38,154.918 227.826,155.227 229.096,156.067C230.903,157.261 231.609,158.901 231.353,161.006C230.969,164.163 228.686,166.221 225.487,166.471C223.715,166.609 222.003,166.551 220.339,165.903C218.98,165.373 217.766,164.636 216.792,163.303C217.548,162.521 218.289,161.756 218.977,161.044C219.622,161.01 219.848,161.477 220.205,161.726C221.76,162.813 223.443,163.278 225.297,162.669C225.748,162.522 226.204,162.249 226.537,161.913C227.625,160.817 227.403,159.501 226.153,158.904C225.188,158.444 224.176,158.068 223.16,157.732C221.88,157.308 220.594,156.953 219.479,156.124C216.531,153.934 217.014,149.632 219.662,147.637C222.624,145.406 227.775,146.081 230.255,148.601C230.346,148.693 230.393,148.829 230.533,149.069Z" style="fill:white;fill-rule:nonzero;"/>
    </g>
</svg>
