<svg version="1.1" id="Layer_1" xmlns="http://www.w3.org/2000/svg" xmlns:xlink="http://www.w3.org/1999/xlink" x="0px" y="0px" viewBox="0 0 725.7 181.9" style="enable-background:new 0 0 725.7 181.9;" xml:space="preserve">
 <style type="text/css">
  .st0{fill:#1A1A1A;}
 </style>
 <g>
  <g>
   <g>
    <path class="st0" d="M151.5,0H30.4C13.6,0,0,13.6,0,30.4v121.1c0,16.8,13.6,30.4,30.4,30.4h121.1c16.8,0,30.4-13.6,30.4-30.4
				V30.4C181.9,13.6,168.3,0,151.5,0z M148.8,139.3c0,5.3-4.3,9.6-9.6,9.6H42.7c-5.3,0-9.6-4.3-9.6-9.6V42.7c0-5.3,4.3-9.6,9.6-9.6
				h96.6c5.3,0,9.6,4.3,9.6,9.6V139.3z">
    </path>
    <path class="st0" d="M71.7,115.6c-3.1,0-5.5-2.5-5.5-5.5V71.6c0-3.1,2.5-5.5,5.5-5.5h38.6c3,0,5.5,2.5,5.5,5.5v38.5
				c0,3.1-2.5,5.5-5.5,5.5H71.7z">
    </path>
   </g>
  </g>
  <g>
   <path class="st0" d="M230.2,113H250c1,11.3,8.6,20,24,20c13.7,0,22.2-6.8,22.2-17c0-9.6-6.6-13.9-18.5-16.7L262.3,96
			C245.5,92.3,233,81.6,233,64c0-19.4,17.2-32.6,39.6-32.6c23.7,0,38.9,12.4,40.2,30.8h-19.2c-2.3-8.6-9.4-13.7-21-13.7
			c-12.2,0-20.7,6.6-20.7,15.1s7.3,13.6,19.9,16.4l15.2,3.3c16.7,3.6,28.1,13.7,28.1,31.4c0,22.5-16.9,35.9-41.1,35.9
			C246.9,150.6,231.8,135.9,230.2,113z">
   </path>
   <path class="st0" d="M386.1,181.9v-33l1.3-14.4h-1.3c-4.5,10.4-14.1,16.1-27.1,16.1c-20.9,0-36.5-17-36.5-43.2
			c0-26.1,15.6-43.2,36.5-43.2c12.8,0,21.9,6,27.1,15.4h1.3V65.9h17.2v116.1H386.1z M386.8,107.4c0-16.7-10.2-26.5-22.7-26.5
			s-22.7,9.7-22.7,26.5c0,16.7,10.2,26.5,22.7,26.5S386.8,124.1,386.8,107.4z">
   </path>
   <path class="st0" d="M418.4,116V65.9h18.5v48.5c0,13.1,6.3,19.5,16.9,19.5c13,0,21.4-9.3,21.4-23.7V65.9h18.5V149h-17.2v-17.2
			h-1.3c-4.1,11-13,18.8-26.8,18.8C428.6,150.6,418.4,137.9,418.4,116z">
   </path>
   <path class="st0" d="M505,125.8c0-15.6,10.9-24.7,30.2-25.8l22.9-1.5V92c0-7.8-5.7-12.5-15.7-12.5c-9.3,0-14.8,4.7-16.2,11.4
			h-18.5c1.9-16.9,15.9-26.6,34.7-26.6c21.3,0,34.3,9.1,34.3,26.6V149h-17.2v-15.4h-1.3c-3.9,10.2-12,17-27.6,17
			C515.5,150.6,505,140.5,505,125.8z M558.1,115.5v-4.4l-18.7,1.3c-10.1,0.6-14.6,4.4-14.6,11.9c0,6.3,5.2,10.9,12.5,10.9
			C550.4,135.2,558.1,126.7,558.1,115.5z">
   </path>
   <path class="st0" d="M590.4,149V65.9h17.2v15.9h1.3c2.4-10.9,10.7-15.9,23.1-15.9h8.4v16.7h-10.6c-12,0-20.9,7.8-20.9,22.6V149
			H590.4z">
   </path>
   <path class="st0" d="M725.1,110.8h-63.1c1,15.3,11.7,23.9,23.5,23.9c10.1,0,16.4-4.1,20-10.9h18.3c-5,16.9-19.8,26.8-38.5,26.8
			c-24.5,0-41.7-18.3-41.7-43.2c0-24.8,17.7-43.2,41.9-43.2c24.4,0,40.3,16.7,40.3,37.5C725.7,105.8,725.4,107.9,725.1,110.8z
			 M707.4,98c-0.6-11.5-10.2-19.3-21.9-19.3c-11,0-20.3,7-22.6,19.3H707.4z">
   </path>
  </g>
 </g>
</svg>